<?xml version="1.0" encoding="UTF-8"?>
<svg id="Layer_1" xmlns="http://www.w3.org/2000/svg" version="1.1" viewBox="0 0 46.17 30.98">
  <!-- Generator: Adobe Illustrator 30.2.1, SVG Export Plug-In . SVG Version: 2.1.1 Build 1)  -->
  <defs>
    <style>
      .st0 {
        fill: #e9a3a5;
      }
    </style>
  </defs>
  <rect class="st0" x="0" y="0" width="45.99" height="4.6" rx="2.3" ry="2.3"/>
  <path class="st0" d="M2.62,13h0c-1.17,0-2.27.74-2.54,1.88-.39,1.64.84,3.1,2.42,3.1.04,0,.09,0,.13-.01h41.24c1.27.01,2.3-1.02,2.3-2.29v-.38c0-1.27-1.03-2.3-2.3-2.3H2.62Z"/>
  <path class="st0" d="M2.42,26.37h0c-1.08,0-2.1.69-2.35,1.74-.36,1.51.78,2.86,2.23,2.86.04,0,.08,0,.12-.01h41.44c1.27,0,2.3-1.02,2.3-2.29h0c0-1.27-1.03-2.3-2.3-2.3H2.42Z"/>
</svg>