<svg width="341" height="326" viewBox="0 0 341 326" fill="none" xmlns="http://www.w3.org/2000/svg">
<path d="M151.008 10.2839C160.106 -3.42824 180.241 -3.42824 189.339 10.2839L233.523 76.877C236.579 81.4831 241.192 84.8345 246.517 86.3177L323.504 107.761C339.357 112.176 345.578 131.325 335.349 144.215L285.669 206.815C282.232 211.145 280.47 216.567 280.705 222.09L284.102 301.936C284.802 318.377 268.512 330.212 253.092 324.466L178.204 296.562C173.025 294.631 167.323 294.631 162.143 296.562L87.2549 324.466C71.8349 330.212 55.5455 318.377 56.245 301.936L59.6419 222.09C59.8769 216.567 58.1149 211.145 54.6786 206.815L4.9984 144.215C-5.23119 131.325 0.990778 112.176 16.8431 107.761L93.8305 86.3177C99.1556 84.8345 103.768 81.4831 106.825 76.877L151.008 10.2839Z" fill="#FDC98D"/>
</svg>
